<svg xmlns="http://www.w3.org/2000/svg" width="200" height="32" fill="none" viewBox="0 0 200 32">
  <path fill="#43BAFF" d="M19.962 2.19a.457.457 0 0 0-.031-.67 6.323 6.323 0 0 0-8.59.338l-9.49 9.487a6.327 6.327 0 0 0-.338 8.577.46.46 0 0 0 .674.034zM30.145 11.705l-4.868-4.867a3.163 3.163 0 0 0-4.473 0L4.916 22.725a.457.457 0 0 0 0 .64l1.91 1.91a3.164 3.164 0 0 0 4.472 0l11.29-11.291a.45.45 0 0 1 .64 0l.155.155a3.163 3.163 0 0 1 0 4.47L12.116 29.878a.46.46 0 0 0 .037.677 6.323 6.323 0 0 0 8.503-.407l9.49-9.49a6.325 6.325 0 0 0 0-8.953"/>
  <text x="42" y="22" fill="#fff" font-family="Arial, Helvetica, sans-serif" font-size="14" font-weight="700">IT Dor Services</text>
</svg>
